<svg enable-background="new 0 0 24 24" height="512" viewBox="0 0 24 24" width="512" xmlns="http://www.w3.org/2000/svg"><g id="color"><g><path d="m20.921 6.503-.407-.407-2.603-2.603-.407-.407c-.494-.494-1.354-.436-1.918.128l-6.88 6.88c-.564.564-.621 1.424-.128 1.918l3.417 3.417c.494.494 1.354.436 1.918-.128l6.88-6.88c.565-.565.622-1.425.128-1.918z" fill="#607d8b"/></g><g><path d="m9.302 22.15c-.393.393-.989.433-1.332.09l-6.21-6.21c-.343-.343-.303-.939.09-1.332l12.794-12.794c.393-.393.989-.433 1.332-.09l.311.311c.343.343.303.939-.09 1.332-.393.393-.433.989-.09 1.332l3.105 3.105c.343.343.939.303 1.332-.09.393-.393.989-.433 1.332-.09l.311.311c.343.343.303.939-.09 1.332z" fill="#eceff1"/></g></g><g id="_x31__x2C_5"><g><path d="m12.098 24c-.302 0-.575-.181-.692-.46-.118-.281-.054-.604.162-.82l2.845-2.845c.293-.293.768-.293 1.061 0s.293.768 0 1.061l-1.348 1.348c4.732-.984 8.335-5.193 8.375-10.191.003-.414.363-.707.756-.744.415.003.748.342.744.756-.053 6.506-5.39 11.843-11.897 11.895-.002 0-.004 0-.006 0z"/></g><g><path d="m.75 12.652c-.002 0-.004 0-.006 0-.414-.003-.747-.341-.744-.756.052-6.507 5.389-11.844 11.896-11.896.343.004.58.179.698.46s.054.604-.162.82l-2.845 2.845c-.293.293-.768.293-1.061 0s-.293-.768 0-1.061l1.348-1.348c-4.731.985-8.334 5.194-8.374 10.192-.003.412-.338.744-.75.744z"/></g><g><path d="m19.412 8.459c-.467 0-.907-.182-1.237-.513l-2.121-2.121c-.331-.331-.513-.77-.513-1.237 0-.468.182-.907.513-1.238.097-.097.097-.256-.001-.354-.292-.293-.292-.768.001-1.061.292-.292.768-.293 1.061.001.681.682.681 1.792 0 2.474-.064.064-.074.139-.074.177s.01.113.073.177l2.121 2.121c.128.127.226.127.353 0 .684-.683 1.793-.682 2.475-.001.293.293.293.768.001 1.061-.293.294-.769.293-1.061.001-.099-.098-.256-.097-.355 0-.329.331-.768.513-1.236.513z"/></g><g><path d="m8.789 22.999c-.691 0-1.383-.263-1.91-.79l-5.088-5.087c-1.054-1.054-1.054-2.769 0-3.822l11.51-11.509c1.053-1.052 2.766-1.053 3.82 0l5.088 5.087c1.054 1.054 1.054 2.769 0 3.822l-11.51 11.509c-.526.526-1.218.79-1.91.79zm-.849-1.851c.469.468 1.232.468 1.699 0l11.509-11.508c.469-.469.469-1.232 0-1.701l-5.088-5.087c-.468-.468-1.231-.468-1.699 0l-11.509 11.508c-.469.469-.469 1.232 0 1.701z"/></g></g></svg>